<?xml version="1.0" encoding="UTF-8" standalone="no"?>
<!-- Generator: Adobe Illustrator 15.1.0, SVG Export Plug-In . SVG Version: 6.00 Build 0)  -->

<svg
   xmlns:dc="http://purl.org/dc/elements/1.1/"
   xmlns:cc="http://creativecommons.org/ns#"
   xmlns:rdf="http://www.w3.org/1999/02/22-rdf-syntax-ns#"
   xmlns:svg="http://www.w3.org/2000/svg"
   xmlns="http://www.w3.org/2000/svg"
   xmlns:sodipodi="http://sodipodi.sourceforge.net/DTD/sodipodi-0.dtd"
   xmlns:inkscape="http://www.inkscape.org/namespaces/inkscape"
   version="1.1"
   id="Layer_1"
   x="0px"
   y="0px"
   width="120"
   height="120"
   viewBox="0 0 120 120"
   enable-background="new 0 0 100 77"
   xml:space="preserve"
   inkscape:version="0.48.3.1 r9886"
   sodipodi:docname="hard-drive-paused.svg"><metadata
   id="metadata11"><rdf:RDF><cc:Work
       rdf:about=""><dc:format>image/svg+xml</dc:format><dc:type
         rdf:resource="http://purl.org/dc/dcmitype/StillImage" /><dc:title /></cc:Work></rdf:RDF></metadata><defs
   id="defs9" /><sodipodi:namedview
   pagecolor="#ffffff"
   bordercolor="#666666"
   borderopacity="1"
   objecttolerance="10"
   gridtolerance="10"
   guidetolerance="10"
   inkscape:pageopacity="0"
   inkscape:pageshadow="2"
   inkscape:window-width="1301"
   inkscape:window-height="744"
   id="namedview7"
   showgrid="false"
   inkscape:zoom="4.1295036"
   inkscape:cx="32.172314"
   inkscape:cy="47.585708"
   inkscape:window-x="65"
   inkscape:window-y="24"
   inkscape:window-maximized="1"
   inkscape:current-layer="Layer_1" />


<path
   style="fill:#dfdbd2;fill-opacity:1;fill-rule:nonzero"
   d="M 26 21.5 L 10 76.5 L 110 76.5 L 94 21.5 L 26 21.5 z M 42.53125 27.78125 L 56.90625 27.78125 L 56.90625 68.1875 L 42.53125 68.1875 L 42.53125 27.78125 z M 64.4375 27.78125 L 78.84375 27.78125 L 78.84375 68.1875 L 64.4375 68.1875 L 64.4375 27.78125 z "
   id="polygon3" /><path
   d="m 10,80.5 v 18 h 100 v -18 H 10 z m 66,13 c -2.209,0 -4,-1.79 -4,-4 0,-2.21 1.791,-4 4,-4 2.209,0 4,1.79 4,4 0,2.21 -1.791,4 -4,4 z m 12,0 c -2.209,0 -4,-1.79 -4,-4 0,-2.21 1.791,-4 4,-4 2.209,0 4,1.79 4,4 0,2.21 -1.791,4 -4,4 z m 12,0 c -2.209,0 -4,-1.79 -4,-4 0,-2.21 1.791,-4 4,-4 2.209,0 4,1.79 4,4 0,2.21 -1.791,4 -4,4 z"
   id="path5"
   style="fill:#dfdbd2;fill-opacity:1"
   inkscape:connector-curvature="0" /></svg>